%TF.GenerationSoftware,KiCad,Pcbnew,8.0.1*%
%TF.CreationDate,2024-08-07T22:17:08+12:00*%
%TF.ProjectId,Stm32_Bluepill Breakout,53746d33-325f-4426-9c75-6570696c6c20,rev?*%
%TF.SameCoordinates,Original*%
%TF.FileFunction,Copper,L2,Bot*%
%TF.FilePolarity,Positive*%
%FSLAX46Y46*%
G04 Gerber Fmt 4.6, Leading zero omitted, Abs format (unit mm)*
G04 Created by KiCad (PCBNEW 8.0.1) date 2024-08-07 22:17:08*
%MOMM*%
%LPD*%
G01*
G04 APERTURE LIST*
G04 Aperture macros list*
%AMRoundRect*
0 Rectangle with rounded corners*
0 $1 Rounding radius*
0 $2 $3 $4 $5 $6 $7 $8 $9 X,Y pos of 4 corners*
0 Add a 4 corners polygon primitive as box body*
4,1,4,$2,$3,$4,$5,$6,$7,$8,$9,$2,$3,0*
0 Add four circle primitives for the rounded corners*
1,1,$1+$1,$2,$3*
1,1,$1+$1,$4,$5*
1,1,$1+$1,$6,$7*
1,1,$1+$1,$8,$9*
0 Add four rect primitives between the rounded corners*
20,1,$1+$1,$2,$3,$4,$5,0*
20,1,$1+$1,$4,$5,$6,$7,0*
20,1,$1+$1,$6,$7,$8,$9,0*
20,1,$1+$1,$8,$9,$2,$3,0*%
G04 Aperture macros list end*
%TA.AperFunction,ComponentPad*%
%ADD10C,1.700000*%
%TD*%
%TA.AperFunction,ComponentPad*%
%ADD11RoundRect,0.250000X-0.845000X0.620000X-0.845000X-0.620000X0.845000X-0.620000X0.845000X0.620000X0*%
%TD*%
%TA.AperFunction,ComponentPad*%
%ADD12O,2.190000X1.740000*%
%TD*%
%TA.AperFunction,ComponentPad*%
%ADD13RoundRect,0.250000X0.620000X0.845000X-0.620000X0.845000X-0.620000X-0.845000X0.620000X-0.845000X0*%
%TD*%
%TA.AperFunction,ComponentPad*%
%ADD14O,1.740000X2.190000*%
%TD*%
%TA.AperFunction,ComponentPad*%
%ADD15RoundRect,0.250000X-0.620000X-0.845000X0.620000X-0.845000X0.620000X0.845000X-0.620000X0.845000X0*%
%TD*%
%TA.AperFunction,Conductor*%
%ADD16C,0.800000*%
%TD*%
%TA.AperFunction,Conductor*%
%ADD17C,0.500000*%
%TD*%
G04 APERTURE END LIST*
D10*
%TO.P,U1,8,PA11*%
%TO.N,/RPM*%
X138400000Y-88940000D03*
%TO.P,U1,9,PA12*%
%TO.N,/SPD*%
X138400000Y-91480000D03*
%TO.P,U1,35,PB10*%
%TO.N,/SDA*%
X153640000Y-83860000D03*
%TO.P,U1,36,PB11*%
%TO.N,/SCL*%
X153640000Y-81320000D03*
%TO.P,U1,38,3V3*%
%TO.N,+3.3V*%
X153640000Y-76240000D03*
%TO.P,U1,39,GND*%
%TO.N,GND*%
X153640000Y-73700000D03*
%TO.P,U1,40,GND*%
X153640000Y-71160000D03*
%TD*%
D11*
%TO.P,J7,1,Pin_1*%
%TO.N,GND*%
X161600000Y-73660000D03*
D12*
%TO.P,J7,2,Pin_2*%
%TO.N,+3.3V*%
X161600000Y-76200000D03*
%TO.P,J7,3,Pin_3*%
%TO.N,/SDA*%
X161600000Y-78740000D03*
%TO.P,J7,4,Pin_4*%
%TO.N,/SCL*%
X161600000Y-81280000D03*
%TD*%
D13*
%TO.P,J2,1,Pin_1*%
%TO.N,+3.3V*%
X132080000Y-86600000D03*
D14*
%TO.P,J2,2,Pin_2*%
%TO.N,/SPD*%
X129540000Y-86600000D03*
%TO.P,J2,3,Pin_3*%
%TO.N,GND*%
X127000000Y-86600000D03*
%TD*%
D15*
%TO.P,J1,1,Pin_1*%
%TO.N,+3.3V*%
X127100000Y-78600000D03*
D14*
%TO.P,J1,2,Pin_2*%
%TO.N,/RPM*%
X129640000Y-78600000D03*
%TO.P,J1,3,Pin_3*%
%TO.N,GND*%
X132180000Y-78600000D03*
%TD*%
D16*
%TO.N,+3.3V*%
X132080000Y-83580000D02*
X132080000Y-86600000D01*
X130900000Y-82400000D02*
X132080000Y-83580000D01*
X128800000Y-82400000D02*
X130900000Y-82400000D01*
X127100000Y-80700000D02*
X128800000Y-82400000D01*
X127100000Y-78600000D02*
X127100000Y-80700000D01*
D17*
%TO.N,/RPM*%
X129640000Y-80540000D02*
X129640000Y-78600000D01*
X132045000Y-80745000D02*
X129845000Y-80745000D01*
X134200000Y-84740000D02*
X134200000Y-82900000D01*
X134200000Y-82900000D02*
X132045000Y-80745000D01*
X138400000Y-88940000D02*
X134200000Y-84740000D01*
X129845000Y-80745000D02*
X129640000Y-80540000D01*
%TO.N,/SPD*%
X130200000Y-88800000D02*
X129540000Y-88140000D01*
X129540000Y-88140000D02*
X129540000Y-86700000D01*
X134200000Y-88800000D02*
X130200000Y-88800000D01*
X136880000Y-91480000D02*
X134200000Y-88800000D01*
X138400000Y-91480000D02*
X136880000Y-91480000D01*
D16*
%TO.N,+3.3V*%
X127100000Y-76900000D02*
X127100000Y-78600000D01*
X127760000Y-76240000D02*
X127100000Y-76900000D01*
X153640000Y-76240000D02*
X127760000Y-76240000D01*
D17*
%TO.N,/SCL*%
X156700000Y-81300000D02*
X156680000Y-81320000D01*
X156680000Y-81320000D02*
X153640000Y-81320000D01*
X161580000Y-81300000D02*
X156700000Y-81300000D01*
X161600000Y-81280000D02*
X161580000Y-81300000D01*
%TO.N,GND*%
X161480000Y-73700000D02*
X161600000Y-73820000D01*
D16*
%TO.N,+3.3V*%
X153640000Y-76240000D02*
X161480000Y-76240000D01*
X161480000Y-76240000D02*
X161600000Y-76360000D01*
D17*
%TO.N,/SDA*%
X163500000Y-78900000D02*
X161600000Y-78900000D01*
X163900000Y-79300000D02*
X163500000Y-78900000D01*
X162840000Y-83860000D02*
X163900000Y-82800000D01*
X163900000Y-82800000D02*
X163900000Y-79300000D01*
X153640000Y-83860000D02*
X162840000Y-83860000D01*
%TD*%
%TA.AperFunction,Conductor*%
%TO.N,GND*%
G36*
X164642539Y-68420185D02*
G01*
X164688294Y-68472989D01*
X164699500Y-68524500D01*
X164699500Y-78314507D01*
X164679815Y-78381546D01*
X164627011Y-78427301D01*
X164557853Y-78437245D01*
X164494297Y-78408220D01*
X164487819Y-78402188D01*
X164320317Y-78234686D01*
X164320297Y-78234664D01*
X164169657Y-78084024D01*
X164043248Y-77999561D01*
X163997598Y-77969059D01*
X163806420Y-77889870D01*
X163806412Y-77889868D01*
X163603469Y-77849500D01*
X163603465Y-77849500D01*
X163308464Y-77849500D01*
X163241425Y-77829815D01*
X163210088Y-77800986D01*
X163083644Y-77636201D01*
X163083638Y-77636194D01*
X163005125Y-77557681D01*
X162971640Y-77496358D01*
X162976624Y-77426666D01*
X163005125Y-77382319D01*
X163083638Y-77303805D01*
X163083643Y-77303800D01*
X163216950Y-77130071D01*
X163326440Y-76940428D01*
X163410241Y-76738117D01*
X163466917Y-76526598D01*
X163495500Y-76309490D01*
X163495500Y-76090510D01*
X163466917Y-75873402D01*
X163410241Y-75661883D01*
X163326440Y-75459572D01*
X163216950Y-75269929D01*
X163165176Y-75202455D01*
X163139982Y-75137286D01*
X163154021Y-75068841D01*
X163184891Y-75031113D01*
X163191057Y-75026052D01*
X163322267Y-74866173D01*
X163322271Y-74866166D01*
X163419766Y-74683766D01*
X163479808Y-74485834D01*
X163495000Y-74331584D01*
X163495000Y-74060000D01*
X162041456Y-74060000D01*
X162076118Y-74025338D01*
X162154452Y-73889661D01*
X162195000Y-73738333D01*
X162195000Y-73581667D01*
X162154452Y-73430339D01*
X162076118Y-73294662D01*
X162041456Y-73260000D01*
X163495000Y-73260000D01*
X163495000Y-72988415D01*
X163479808Y-72834165D01*
X163419766Y-72636233D01*
X163322271Y-72453833D01*
X163322267Y-72453826D01*
X163191055Y-72293944D01*
X163031173Y-72162732D01*
X163031166Y-72162728D01*
X162848766Y-72065233D01*
X162650834Y-72005191D01*
X162496585Y-71990000D01*
X162000000Y-71990000D01*
X162000000Y-73218544D01*
X161965338Y-73183882D01*
X161829661Y-73105548D01*
X161678333Y-73065000D01*
X161521667Y-73065000D01*
X161370339Y-73105548D01*
X161234662Y-73183882D01*
X161200000Y-73218544D01*
X161200000Y-71990000D01*
X160703415Y-71990000D01*
X160549165Y-72005191D01*
X160351233Y-72065233D01*
X160168833Y-72162728D01*
X160168826Y-72162732D01*
X160008944Y-72293944D01*
X159877732Y-72453826D01*
X159877728Y-72453833D01*
X159780233Y-72636233D01*
X159720191Y-72834165D01*
X159705000Y-72988415D01*
X159705000Y-73260000D01*
X161158544Y-73260000D01*
X161123882Y-73294662D01*
X161045548Y-73430339D01*
X161005000Y-73581667D01*
X161005000Y-73738333D01*
X161045548Y-73889661D01*
X161123882Y-74025338D01*
X161158544Y-74060000D01*
X159705000Y-74060000D01*
X159705000Y-74331584D01*
X159720191Y-74485834D01*
X159780233Y-74683766D01*
X159872854Y-74857047D01*
X159887096Y-74925450D01*
X159862096Y-74990693D01*
X159805791Y-75032064D01*
X159763496Y-75039500D01*
X154821531Y-75039500D01*
X154754492Y-75019815D01*
X154741000Y-75009790D01*
X154613143Y-74900590D01*
X154556979Y-74866173D01*
X154391628Y-74764846D01*
X154391627Y-74764845D01*
X154391623Y-74764843D01*
X154195884Y-74683766D01*
X154151610Y-74665427D01*
X154151607Y-74665426D01*
X154151604Y-74665425D01*
X154038402Y-74638246D01*
X153979670Y-74605354D01*
X153640001Y-74265685D01*
X153640000Y-74265685D01*
X153300329Y-74605355D01*
X153241597Y-74638248D01*
X153128386Y-74665428D01*
X152888376Y-74764843D01*
X152666856Y-74900590D01*
X152539000Y-75009790D01*
X152475239Y-75038361D01*
X152458469Y-75039500D01*
X127665514Y-75039500D01*
X127478881Y-75069059D01*
X127299163Y-75127454D01*
X127130800Y-75213240D01*
X126977923Y-75324312D01*
X126184313Y-76117921D01*
X126184309Y-76117926D01*
X126164263Y-76145518D01*
X126164263Y-76145519D01*
X126073240Y-76270800D01*
X125987454Y-76439163D01*
X125929059Y-76618881D01*
X125899500Y-76805513D01*
X125899500Y-76813784D01*
X125879815Y-76880823D01*
X125854164Y-76909638D01*
X125733589Y-77008589D01*
X125602317Y-77168547D01*
X125504769Y-77351043D01*
X125444699Y-77549067D01*
X125429500Y-77703395D01*
X125429500Y-79496604D01*
X125444699Y-79650932D01*
X125457915Y-79694500D01*
X125504768Y-79848954D01*
X125602315Y-80031450D01*
X125602317Y-80031452D01*
X125733589Y-80191410D01*
X125854164Y-80290362D01*
X125893499Y-80348108D01*
X125899500Y-80386216D01*
X125899500Y-80794486D01*
X125929059Y-80981118D01*
X125987454Y-81160836D01*
X126068553Y-81320000D01*
X126073240Y-81329199D01*
X126184310Y-81482074D01*
X128017926Y-83315690D01*
X128170801Y-83426760D01*
X128339168Y-83512547D01*
X128518882Y-83570940D01*
X128588870Y-83582025D01*
X128705513Y-83600500D01*
X128705518Y-83600500D01*
X128705519Y-83600500D01*
X130351374Y-83600500D01*
X130418413Y-83620185D01*
X130439055Y-83636819D01*
X130843181Y-84040945D01*
X130876666Y-84102268D01*
X130879500Y-84128626D01*
X130879500Y-84813784D01*
X130859815Y-84880823D01*
X130834164Y-84909638D01*
X130713587Y-85008591D01*
X130708484Y-85014810D01*
X130650738Y-85054143D01*
X130580893Y-85056012D01*
X130537147Y-85034519D01*
X130470070Y-84983049D01*
X130280438Y-84873565D01*
X130280433Y-84873562D01*
X130280428Y-84873560D01*
X130080971Y-84790941D01*
X130078115Y-84789758D01*
X129972357Y-84761421D01*
X129866598Y-84733083D01*
X129830314Y-84728306D01*
X129649497Y-84704500D01*
X129649490Y-84704500D01*
X129430510Y-84704500D01*
X129430502Y-84704500D01*
X129223853Y-84731707D01*
X129213402Y-84733083D01*
X129168699Y-84745060D01*
X129001884Y-84789758D01*
X128943882Y-84813784D01*
X128799572Y-84873560D01*
X128799569Y-84873561D01*
X128799561Y-84873565D01*
X128609929Y-84983049D01*
X128436202Y-85116354D01*
X128357327Y-85195229D01*
X128296003Y-85228713D01*
X128226312Y-85223729D01*
X128181965Y-85195228D01*
X128103475Y-85116738D01*
X128103468Y-85116732D01*
X127929801Y-84983473D01*
X127929785Y-84983462D01*
X127740214Y-84874012D01*
X127740198Y-84874004D01*
X127537959Y-84790235D01*
X127400000Y-84753268D01*
X127400000Y-86158544D01*
X127365338Y-86123882D01*
X127229661Y-86045548D01*
X127078333Y-86005000D01*
X126921667Y-86005000D01*
X126770339Y-86045548D01*
X126634662Y-86123882D01*
X126600000Y-86158544D01*
X126600000Y-84753268D01*
X126462040Y-84790235D01*
X126259801Y-84874004D01*
X126259785Y-84874012D01*
X126070214Y-84983462D01*
X126070198Y-84983473D01*
X125896531Y-85116732D01*
X125896524Y-85116738D01*
X125741738Y-85271524D01*
X125741732Y-85271531D01*
X125608473Y-85445198D01*
X125608462Y-85445214D01*
X125499012Y-85634785D01*
X125499004Y-85634801D01*
X125415234Y-85837043D01*
X125358573Y-86048503D01*
X125338628Y-86200000D01*
X126558544Y-86200000D01*
X126523882Y-86234662D01*
X126445548Y-86370339D01*
X126405000Y-86521667D01*
X126405000Y-86678333D01*
X126445548Y-86829661D01*
X126523882Y-86965338D01*
X126558544Y-87000000D01*
X125338629Y-87000000D01*
X125358573Y-87151496D01*
X125415234Y-87362956D01*
X125499004Y-87565198D01*
X125499012Y-87565214D01*
X125608462Y-87754785D01*
X125608473Y-87754801D01*
X125741732Y-87928468D01*
X125741738Y-87928475D01*
X125896524Y-88083261D01*
X125896531Y-88083267D01*
X126070198Y-88216526D01*
X126070214Y-88216537D01*
X126259785Y-88325987D01*
X126259796Y-88325992D01*
X126462034Y-88409762D01*
X126462041Y-88409764D01*
X126599999Y-88446730D01*
X126600000Y-88446730D01*
X126600000Y-87041456D01*
X126634662Y-87076118D01*
X126770339Y-87154452D01*
X126921667Y-87195000D01*
X127078333Y-87195000D01*
X127229661Y-87154452D01*
X127365338Y-87076118D01*
X127400000Y-87041456D01*
X127400000Y-88446730D01*
X127537958Y-88409764D01*
X127537965Y-88409762D01*
X127740203Y-88325992D01*
X127740214Y-88325987D01*
X127929785Y-88216537D01*
X127929801Y-88216526D01*
X128103467Y-88083268D01*
X128181964Y-88004771D01*
X128243287Y-87971286D01*
X128312979Y-87976270D01*
X128357327Y-88004771D01*
X128436194Y-88083638D01*
X128436198Y-88083641D01*
X128436200Y-88083643D01*
X128440986Y-88087315D01*
X128482188Y-88143741D01*
X128489500Y-88185691D01*
X128489500Y-88243469D01*
X128529868Y-88446412D01*
X128529870Y-88446420D01*
X128609059Y-88637598D01*
X128724023Y-88809655D01*
X128870345Y-88955977D01*
X128870346Y-88955977D01*
X128877413Y-88963044D01*
X128877412Y-88963044D01*
X128877415Y-88963046D01*
X129384022Y-89469654D01*
X129384023Y-89469655D01*
X129530345Y-89615977D01*
X129702402Y-89730941D01*
X129893580Y-89810130D01*
X130096530Y-89850499D01*
X130096534Y-89850500D01*
X130096535Y-89850500D01*
X133713507Y-89850500D01*
X133780546Y-89870185D01*
X133801188Y-89886819D01*
X136060897Y-92146528D01*
X136060926Y-92146559D01*
X136210342Y-92295975D01*
X136210345Y-92295977D01*
X136382402Y-92410941D01*
X136573580Y-92490130D01*
X136742861Y-92523802D01*
X136765309Y-92528267D01*
X136776533Y-92530500D01*
X136776534Y-92530500D01*
X136776535Y-92530500D01*
X137069495Y-92530500D01*
X137136534Y-92550185D01*
X137163785Y-92573968D01*
X137229311Y-92650689D01*
X137426860Y-92819412D01*
X137648372Y-92955154D01*
X137648374Y-92955154D01*
X137648376Y-92955156D01*
X137709693Y-92980554D01*
X137888390Y-93054573D01*
X138141006Y-93115221D01*
X138400000Y-93135604D01*
X138658994Y-93115221D01*
X138911610Y-93054573D01*
X139151628Y-92955154D01*
X139373140Y-92819412D01*
X139570689Y-92650689D01*
X139739412Y-92453140D01*
X139875154Y-92231628D01*
X139974573Y-91991610D01*
X140035221Y-91738994D01*
X140055604Y-91480000D01*
X140035221Y-91221006D01*
X139974573Y-90968390D01*
X139875154Y-90728372D01*
X139739412Y-90506860D01*
X139570689Y-90309311D01*
X139564809Y-90304289D01*
X139526617Y-90245787D01*
X139526116Y-90175919D01*
X139563468Y-90116872D01*
X139564702Y-90115802D01*
X139570689Y-90110689D01*
X139739412Y-89913140D01*
X139875154Y-89691628D01*
X139974573Y-89451610D01*
X140035221Y-89198994D01*
X140055604Y-88940000D01*
X140035221Y-88681006D01*
X139974573Y-88428390D01*
X139897974Y-88243465D01*
X139875156Y-88188376D01*
X139842241Y-88134664D01*
X139739412Y-87966860D01*
X139570689Y-87769311D01*
X139373140Y-87600588D01*
X139151628Y-87464846D01*
X139151627Y-87464845D01*
X139151623Y-87464843D01*
X138985627Y-87396086D01*
X138911610Y-87365427D01*
X138911611Y-87365427D01*
X138773921Y-87332370D01*
X138658994Y-87304779D01*
X138658992Y-87304778D01*
X138658991Y-87304778D01*
X138424189Y-87286299D01*
X138400000Y-87284396D01*
X138399999Y-87284396D01*
X138299414Y-87292311D01*
X138231037Y-87277946D01*
X138202006Y-87256374D01*
X135286819Y-84341187D01*
X135253334Y-84279864D01*
X135250500Y-84253506D01*
X135250500Y-82796534D01*
X135250499Y-82796530D01*
X135227943Y-82683132D01*
X135210130Y-82593580D01*
X135130941Y-82402402D01*
X135015977Y-82230345D01*
X135015975Y-82230342D01*
X134866559Y-82080926D01*
X134866528Y-82080897D01*
X133148875Y-80363244D01*
X133115390Y-80301921D01*
X133120374Y-80232229D01*
X133161070Y-80177187D01*
X133283468Y-80083267D01*
X133283475Y-80083261D01*
X133438261Y-79928475D01*
X133438267Y-79928468D01*
X133571526Y-79754801D01*
X133571537Y-79754785D01*
X133680987Y-79565214D01*
X133680995Y-79565198D01*
X133764765Y-79362956D01*
X133821426Y-79151496D01*
X133841371Y-79000000D01*
X132621456Y-79000000D01*
X132656118Y-78965338D01*
X132734452Y-78829661D01*
X132775000Y-78678333D01*
X132775000Y-78521667D01*
X132734452Y-78370339D01*
X132656118Y-78234662D01*
X132621456Y-78200000D01*
X133841371Y-78200000D01*
X133821426Y-78048503D01*
X133764765Y-77837043D01*
X133680995Y-77634801D01*
X133680991Y-77634794D01*
X133676202Y-77626498D01*
X133659732Y-77558597D01*
X133682585Y-77492571D01*
X133737507Y-77449381D01*
X133783591Y-77440500D01*
X152458469Y-77440500D01*
X152525508Y-77460185D01*
X152539000Y-77470210D01*
X152666856Y-77579409D01*
X152666860Y-77579412D01*
X152888372Y-77715154D01*
X152888374Y-77715154D01*
X152888376Y-77715156D01*
X152949693Y-77740554D01*
X153128390Y-77814573D01*
X153381006Y-77875221D01*
X153640000Y-77895604D01*
X153898994Y-77875221D01*
X154151610Y-77814573D01*
X154391628Y-77715154D01*
X154613140Y-77579412D01*
X154658607Y-77540579D01*
X154741000Y-77470210D01*
X154804761Y-77441639D01*
X154821531Y-77440500D01*
X160015075Y-77440500D01*
X160082114Y-77460185D01*
X160127869Y-77512989D01*
X160137813Y-77582147D01*
X160113451Y-77639986D01*
X159983049Y-77809929D01*
X159873565Y-77999561D01*
X159873560Y-77999573D01*
X159789758Y-78201884D01*
X159733084Y-78413399D01*
X159733082Y-78413410D01*
X159704500Y-78630502D01*
X159704500Y-78849497D01*
X159724315Y-79000000D01*
X159733083Y-79066598D01*
X159789759Y-79278117D01*
X159873560Y-79480428D01*
X159873562Y-79480433D01*
X159873565Y-79480438D01*
X159983049Y-79670070D01*
X160116355Y-79843798D01*
X160116361Y-79843805D01*
X160194875Y-79922319D01*
X160228360Y-79983642D01*
X160223376Y-80053334D01*
X160194875Y-80097681D01*
X160116361Y-80176194D01*
X160116357Y-80176198D01*
X160097339Y-80200985D01*
X160040911Y-80242189D01*
X159998962Y-80249500D01*
X156596534Y-80249500D01*
X156548003Y-80259153D01*
X156507967Y-80267117D01*
X156483777Y-80269500D01*
X154970505Y-80269500D01*
X154903466Y-80249815D01*
X154876215Y-80226032D01*
X154868077Y-80216503D01*
X154810689Y-80149311D01*
X154613140Y-79980588D01*
X154391628Y-79844846D01*
X154391627Y-79844845D01*
X154391623Y-79844843D01*
X154225627Y-79776086D01*
X154151610Y-79745427D01*
X154151611Y-79745427D01*
X154013921Y-79712370D01*
X153898994Y-79684779D01*
X153898992Y-79684778D01*
X153898991Y-79684778D01*
X153640000Y-79664396D01*
X153381009Y-79684778D01*
X153128389Y-79745427D01*
X152888376Y-79844843D01*
X152666859Y-79980588D01*
X152469311Y-80149311D01*
X152300588Y-80346859D01*
X152164843Y-80568376D01*
X152065427Y-80808389D01*
X152004778Y-81061009D01*
X151984396Y-81320000D01*
X152004778Y-81578990D01*
X152065427Y-81831610D01*
X152164843Y-82071623D01*
X152164845Y-82071627D01*
X152164846Y-82071628D01*
X152300588Y-82293140D01*
X152469311Y-82490689D01*
X152475193Y-82495712D01*
X152513383Y-82554219D01*
X152513881Y-82624087D01*
X152476526Y-82683132D01*
X152475256Y-82684232D01*
X152469311Y-82689311D01*
X152469309Y-82689313D01*
X152300588Y-82886859D01*
X152164843Y-83108376D01*
X152065427Y-83348389D01*
X152004778Y-83601009D01*
X151984396Y-83860000D01*
X152004778Y-84118990D01*
X152065427Y-84371610D01*
X152164843Y-84611623D01*
X152164845Y-84611627D01*
X152164846Y-84611628D01*
X152300588Y-84833140D01*
X152469311Y-85030689D01*
X152666860Y-85199412D01*
X152888372Y-85335154D01*
X152888374Y-85335154D01*
X152888376Y-85335156D01*
X152949693Y-85360554D01*
X153128390Y-85434573D01*
X153381006Y-85495221D01*
X153640000Y-85515604D01*
X153898994Y-85495221D01*
X154151610Y-85434573D01*
X154391628Y-85335154D01*
X154613140Y-85199412D01*
X154810689Y-85030689D01*
X154876215Y-84953968D01*
X154934722Y-84915775D01*
X154970505Y-84910500D01*
X162943466Y-84910500D01*
X162943467Y-84910499D01*
X163146420Y-84870130D01*
X163337598Y-84790941D01*
X163337603Y-84790937D01*
X163337606Y-84790936D01*
X163367931Y-84770672D01*
X163397464Y-84750940D01*
X163509655Y-84675977D01*
X163655977Y-84529655D01*
X163655978Y-84529653D01*
X163663044Y-84522587D01*
X163663047Y-84522583D01*
X164487819Y-83697811D01*
X164549142Y-83664326D01*
X164618834Y-83669310D01*
X164674767Y-83711182D01*
X164699184Y-83776646D01*
X164699500Y-83785492D01*
X164699500Y-85675500D01*
X164679815Y-85742539D01*
X164627011Y-85788294D01*
X164575500Y-85799500D01*
X152625710Y-85799500D01*
X152615518Y-85799080D01*
X152596445Y-85797507D01*
X152575469Y-85795777D01*
X152565932Y-85797507D01*
X152543794Y-85799500D01*
X152534108Y-85799500D01*
X152534106Y-85799500D01*
X152534100Y-85799501D01*
X152495288Y-85809899D01*
X152485345Y-85812130D01*
X152445801Y-85819307D01*
X152445796Y-85819309D01*
X152437029Y-85823450D01*
X152416174Y-85831099D01*
X152406818Y-85833606D01*
X152406814Y-85833607D01*
X152406814Y-85833608D01*
X152378313Y-85850062D01*
X152372012Y-85853700D01*
X152362985Y-85858427D01*
X152326646Y-85875594D01*
X152326642Y-85875597D01*
X152319248Y-85881864D01*
X152301087Y-85894648D01*
X152292693Y-85899494D01*
X152292680Y-85899504D01*
X152264267Y-85927916D01*
X152256768Y-85934823D01*
X141951115Y-94670092D01*
X141887247Y-94698423D01*
X141870937Y-94699500D01*
X137381988Y-94699500D01*
X137349981Y-94695298D01*
X124792493Y-91340244D01*
X124732806Y-91303922D01*
X124702232Y-91241097D01*
X124700500Y-91220446D01*
X124700500Y-73700000D01*
X151984898Y-73700000D01*
X152005274Y-73958912D01*
X152065901Y-74211445D01*
X152065906Y-74211462D01*
X152165287Y-74451389D01*
X152165292Y-74451399D01*
X152225182Y-74549132D01*
X153008489Y-73765826D01*
X153140000Y-73765826D01*
X153174075Y-73892993D01*
X153239901Y-74007007D01*
X153332993Y-74100099D01*
X153447007Y-74165925D01*
X153574174Y-74200000D01*
X153705826Y-74200000D01*
X153832993Y-74165925D01*
X153947007Y-74100099D01*
X154040099Y-74007007D01*
X154105925Y-73892993D01*
X154140000Y-73765826D01*
X154140000Y-73700001D01*
X154205685Y-73700001D01*
X155054816Y-74549132D01*
X155054817Y-74549132D01*
X155114707Y-74451400D01*
X155114709Y-74451397D01*
X155214093Y-74211462D01*
X155214098Y-74211445D01*
X155274725Y-73958912D01*
X155295101Y-73700000D01*
X155274725Y-73441087D01*
X155214098Y-73188554D01*
X155214093Y-73188537D01*
X155114709Y-72948602D01*
X155114707Y-72948599D01*
X155054816Y-72850866D01*
X154205685Y-73699999D01*
X154205685Y-73700001D01*
X154140000Y-73700001D01*
X154140000Y-73634174D01*
X154105925Y-73507007D01*
X154040099Y-73392993D01*
X153947007Y-73299901D01*
X153832993Y-73234075D01*
X153705826Y-73200000D01*
X153574174Y-73200000D01*
X153447007Y-73234075D01*
X153332993Y-73299901D01*
X153239901Y-73392993D01*
X153174075Y-73507007D01*
X153140000Y-73634174D01*
X153140000Y-73765826D01*
X153008489Y-73765826D01*
X153074315Y-73700000D01*
X153074315Y-73699999D01*
X152225182Y-72850866D01*
X152165292Y-72948600D01*
X152165287Y-72948610D01*
X152065906Y-73188537D01*
X152065901Y-73188554D01*
X152005274Y-73441087D01*
X151984898Y-73700000D01*
X124700500Y-73700000D01*
X124700500Y-72430000D01*
X152935685Y-72430000D01*
X153640000Y-73134315D01*
X154344315Y-72430000D01*
X153640000Y-71725685D01*
X152935685Y-72430000D01*
X124700500Y-72430000D01*
X124700500Y-71160000D01*
X151984898Y-71160000D01*
X152005274Y-71418912D01*
X152065901Y-71671445D01*
X152065906Y-71671462D01*
X152165287Y-71911389D01*
X152165292Y-71911399D01*
X152225182Y-72009132D01*
X153008489Y-71225826D01*
X153140000Y-71225826D01*
X153174075Y-71352993D01*
X153239901Y-71467007D01*
X153332993Y-71560099D01*
X153447007Y-71625925D01*
X153574174Y-71660000D01*
X153705826Y-71660000D01*
X153832993Y-71625925D01*
X153947007Y-71560099D01*
X154040099Y-71467007D01*
X154105925Y-71352993D01*
X154140000Y-71225826D01*
X154140000Y-71160001D01*
X154205685Y-71160001D01*
X155054816Y-72009132D01*
X155054817Y-72009132D01*
X155114707Y-71911400D01*
X155114709Y-71911397D01*
X155214093Y-71671462D01*
X155214098Y-71671445D01*
X155274725Y-71418912D01*
X155295101Y-71160000D01*
X155274725Y-70901087D01*
X155214098Y-70648554D01*
X155214093Y-70648537D01*
X155114709Y-70408602D01*
X155114707Y-70408599D01*
X155054816Y-70310866D01*
X154205685Y-71159999D01*
X154205685Y-71160001D01*
X154140000Y-71160001D01*
X154140000Y-71094174D01*
X154105925Y-70967007D01*
X154040099Y-70852993D01*
X153947007Y-70759901D01*
X153832993Y-70694075D01*
X153705826Y-70660000D01*
X153574174Y-70660000D01*
X153447007Y-70694075D01*
X153332993Y-70759901D01*
X153239901Y-70852993D01*
X153174075Y-70967007D01*
X153140000Y-71094174D01*
X153140000Y-71225826D01*
X153008489Y-71225826D01*
X153074315Y-71160000D01*
X153074315Y-71159999D01*
X152225182Y-70310866D01*
X152165292Y-70408600D01*
X152165287Y-70408610D01*
X152065906Y-70648537D01*
X152065901Y-70648554D01*
X152005274Y-70901087D01*
X151984898Y-71160000D01*
X124700500Y-71160000D01*
X124700500Y-69745182D01*
X152790866Y-69745182D01*
X153640000Y-70594315D01*
X153640001Y-70594315D01*
X154489132Y-69745182D01*
X154391399Y-69685292D01*
X154391389Y-69685287D01*
X154151462Y-69585906D01*
X154151445Y-69585901D01*
X153898911Y-69525274D01*
X153898912Y-69525274D01*
X153640000Y-69504898D01*
X153381087Y-69525274D01*
X153128554Y-69585901D01*
X153128537Y-69585906D01*
X152888610Y-69685287D01*
X152888600Y-69685292D01*
X152790866Y-69745182D01*
X124700500Y-69745182D01*
X124700500Y-68524500D01*
X124720185Y-68457461D01*
X124772989Y-68411706D01*
X124824500Y-68400500D01*
X164575500Y-68400500D01*
X164642539Y-68420185D01*
G37*
%TD.AperFunction*%
%TD*%
M02*
