%TF.GenerationSoftware,KiCad,Pcbnew,8.0.1*%
%TF.CreationDate,2024-08-05T21:00:00+12:00*%
%TF.ProjectId,QWIIC STM32 breakout,51574949-4320-4535-944d-333220627265,rev?*%
%TF.SameCoordinates,Original*%
%TF.FileFunction,Copper,L2,Bot*%
%TF.FilePolarity,Positive*%
%FSLAX46Y46*%
G04 Gerber Fmt 4.6, Leading zero omitted, Abs format (unit mm)*
G04 Created by KiCad (PCBNEW 8.0.1) date 2024-08-05 21:00:00*
%MOMM*%
%LPD*%
G01*
G04 APERTURE LIST*
G04 Aperture macros list*
%AMRoundRect*
0 Rectangle with rounded corners*
0 $1 Rounding radius*
0 $2 $3 $4 $5 $6 $7 $8 $9 X,Y pos of 4 corners*
0 Add a 4 corners polygon primitive as box body*
4,1,4,$2,$3,$4,$5,$6,$7,$8,$9,$2,$3,0*
0 Add four circle primitives for the rounded corners*
1,1,$1+$1,$2,$3*
1,1,$1+$1,$4,$5*
1,1,$1+$1,$6,$7*
1,1,$1+$1,$8,$9*
0 Add four rect primitives between the rounded corners*
20,1,$1+$1,$2,$3,$4,$5,0*
20,1,$1+$1,$4,$5,$6,$7,0*
20,1,$1+$1,$6,$7,$8,$9,0*
20,1,$1+$1,$8,$9,$2,$3,0*%
G04 Aperture macros list end*
%TA.AperFunction,ComponentPad*%
%ADD10R,1.700000X1.700000*%
%TD*%
%TA.AperFunction,ComponentPad*%
%ADD11O,1.700000X1.700000*%
%TD*%
%TA.AperFunction,SMDPad,CuDef*%
%ADD12RoundRect,0.150000X0.625000X-0.150000X0.625000X0.150000X-0.625000X0.150000X-0.625000X-0.150000X0*%
%TD*%
%TA.AperFunction,SMDPad,CuDef*%
%ADD13RoundRect,0.250000X0.650000X-0.350000X0.650000X0.350000X-0.650000X0.350000X-0.650000X-0.350000X0*%
%TD*%
%TA.AperFunction,Conductor*%
%ADD14C,0.500000*%
%TD*%
G04 APERTURE END LIST*
D10*
%TO.P,J2,1,Pin_1*%
%TO.N,/VCC*%
X166295000Y-106125000D03*
D11*
%TO.P,J2,2,Pin_2*%
%TO.N,/GND*%
X168835000Y-106125000D03*
%TO.P,J2,6,Pin_6*%
%TO.N,/SDA*%
X178995000Y-106125000D03*
%TO.P,J2,7,Pin_7*%
%TO.N,/SCL*%
X181535000Y-106125000D03*
%TD*%
D12*
%TO.P,J1,1,Pin_1*%
%TO.N,/GND*%
X169700000Y-115100000D03*
%TO.P,J1,2,Pin_2*%
%TO.N,/VCC*%
X169700000Y-114100000D03*
%TO.P,J1,3,Pin_3*%
%TO.N,/SDA*%
X169700000Y-113100000D03*
%TO.P,J1,4,Pin_4*%
%TO.N,/SCL*%
X169700000Y-112100000D03*
D13*
%TO.P,J1,MP*%
%TO.N,N/C*%
X165825000Y-116400000D03*
X165825000Y-110800000D03*
%TD*%
D14*
%TO.N,/SDA*%
X178975000Y-106125000D02*
X178995000Y-106125000D01*
X172000000Y-113100000D02*
X178975000Y-106125000D01*
X169700000Y-113100000D02*
X172000000Y-113100000D01*
%TO.N,/SCL*%
X181535000Y-104935000D02*
X181535000Y-106125000D01*
X180900000Y-104300000D02*
X181535000Y-104935000D01*
X170700000Y-112100000D02*
X178500000Y-104300000D01*
X178500000Y-104300000D02*
X180900000Y-104300000D01*
X169700000Y-112100000D02*
X170700000Y-112100000D01*
%TO.N,/VCC*%
X166295000Y-105105000D02*
X166295000Y-106125000D01*
X167000000Y-104400000D02*
X166295000Y-105105000D01*
X168475000Y-111697316D02*
X170600000Y-109572316D01*
X169500000Y-104400000D02*
X167000000Y-104400000D01*
X168475000Y-113575000D02*
X168475000Y-111697316D01*
X169000000Y-114100000D02*
X168475000Y-113575000D01*
X170600000Y-109572316D02*
X170600000Y-105500000D01*
X169700000Y-114100000D02*
X169000000Y-114100000D01*
X170600000Y-105500000D02*
X169500000Y-104400000D01*
%TD*%
%TA.AperFunction,Conductor*%
%TO.N,/GND*%
G36*
X169085000Y-107455633D02*
G01*
X169298483Y-107398433D01*
X169298492Y-107398429D01*
X169512579Y-107298599D01*
X169512585Y-107298595D01*
X169654376Y-107199312D01*
X169720582Y-107176984D01*
X169788349Y-107193994D01*
X169836163Y-107244941D01*
X169849500Y-107300886D01*
X169849500Y-109210085D01*
X169829815Y-109277124D01*
X169813181Y-109297766D01*
X167892050Y-111218896D01*
X167892044Y-111218904D01*
X167842812Y-111292584D01*
X167842813Y-111292585D01*
X167809921Y-111341812D01*
X167809914Y-111341824D01*
X167753342Y-111478402D01*
X167753340Y-111478408D01*
X167724500Y-111623395D01*
X167724500Y-111623398D01*
X167724500Y-113648918D01*
X167724500Y-113648920D01*
X167724499Y-113648920D01*
X167753340Y-113793907D01*
X167753343Y-113793917D01*
X167809914Y-113930492D01*
X167842812Y-113979727D01*
X167842813Y-113979730D01*
X167892046Y-114053414D01*
X167892052Y-114053421D01*
X168417049Y-114578416D01*
X168434181Y-114595548D01*
X168467666Y-114656871D01*
X168465577Y-114717823D01*
X168427899Y-114847511D01*
X168427704Y-114849998D01*
X168427705Y-114850000D01*
X168790950Y-114850000D01*
X168825545Y-114854924D01*
X168972426Y-114897597D01*
X168972429Y-114897597D01*
X168972431Y-114897598D01*
X169009306Y-114900500D01*
X169009314Y-114900500D01*
X170390686Y-114900500D01*
X170390694Y-114900500D01*
X170427569Y-114897598D01*
X170427571Y-114897597D01*
X170427573Y-114897597D01*
X170574455Y-114854924D01*
X170609050Y-114850000D01*
X170972295Y-114850000D01*
X170972295Y-114849998D01*
X170972100Y-114847511D01*
X170972099Y-114847505D01*
X170926283Y-114689806D01*
X170926282Y-114689803D01*
X170910792Y-114663610D01*
X170893611Y-114595886D01*
X170910793Y-114537369D01*
X170926744Y-114510398D01*
X170972598Y-114352569D01*
X170975500Y-114315694D01*
X170975500Y-113974500D01*
X170995185Y-113907461D01*
X171047989Y-113861706D01*
X171099500Y-113850500D01*
X172073920Y-113850500D01*
X172171462Y-113831096D01*
X172218913Y-113821658D01*
X172355495Y-113765084D01*
X172404729Y-113732186D01*
X172478416Y-113682952D01*
X178665107Y-107496258D01*
X178726428Y-107462775D01*
X178763593Y-107460413D01*
X178905053Y-107472789D01*
X178994999Y-107480659D01*
X178995000Y-107480659D01*
X178995001Y-107480659D01*
X179053966Y-107475500D01*
X179230408Y-107460063D01*
X179458663Y-107398903D01*
X179672830Y-107299035D01*
X179866401Y-107163495D01*
X180033495Y-106996401D01*
X180163425Y-106810842D01*
X180218002Y-106767217D01*
X180287500Y-106760023D01*
X180349855Y-106791546D01*
X180366575Y-106810842D01*
X180445875Y-106924095D01*
X180496505Y-106996401D01*
X180663599Y-107163495D01*
X180760384Y-107231265D01*
X180857165Y-107299032D01*
X180857167Y-107299033D01*
X180857170Y-107299035D01*
X181071337Y-107398903D01*
X181299592Y-107460063D01*
X181476034Y-107475500D01*
X181534999Y-107480659D01*
X181535000Y-107480659D01*
X181535001Y-107480659D01*
X181593966Y-107475500D01*
X181770408Y-107460063D01*
X181998663Y-107398903D01*
X182212830Y-107299035D01*
X182406401Y-107163495D01*
X182573495Y-106996401D01*
X182673925Y-106852971D01*
X182728502Y-106809347D01*
X182798000Y-106802153D01*
X182860355Y-106833676D01*
X182895769Y-106893906D01*
X182899500Y-106924095D01*
X182899500Y-107975500D01*
X182879815Y-108042539D01*
X182827011Y-108088294D01*
X182775500Y-108099500D01*
X180734108Y-108099500D01*
X180606812Y-108133608D01*
X180492686Y-108199500D01*
X180492683Y-108199502D01*
X171729005Y-116963181D01*
X171667682Y-116996666D01*
X171641324Y-116999500D01*
X167342433Y-116999500D01*
X167275394Y-116979815D01*
X167229639Y-116927011D01*
X167219075Y-116862897D01*
X167225499Y-116800016D01*
X167225500Y-116800009D01*
X167225499Y-115999992D01*
X167214999Y-115897203D01*
X167159814Y-115730666D01*
X167067712Y-115581344D01*
X166943656Y-115457288D01*
X166794334Y-115365186D01*
X166748509Y-115350001D01*
X168427704Y-115350001D01*
X168427899Y-115352486D01*
X168473718Y-115510198D01*
X168557314Y-115651552D01*
X168557321Y-115651561D01*
X168673438Y-115767678D01*
X168673447Y-115767685D01*
X168814803Y-115851282D01*
X168814806Y-115851283D01*
X168972504Y-115897099D01*
X168972510Y-115897100D01*
X169009350Y-115899999D01*
X169009366Y-115900000D01*
X169450000Y-115900000D01*
X169450000Y-115350000D01*
X169950000Y-115350000D01*
X169950000Y-115900000D01*
X170390634Y-115900000D01*
X170390649Y-115899999D01*
X170427489Y-115897100D01*
X170427495Y-115897099D01*
X170585193Y-115851283D01*
X170585196Y-115851282D01*
X170726552Y-115767685D01*
X170726561Y-115767678D01*
X170842678Y-115651561D01*
X170842685Y-115651552D01*
X170926281Y-115510198D01*
X170972100Y-115352486D01*
X170972295Y-115350001D01*
X170972295Y-115350000D01*
X169950000Y-115350000D01*
X169450000Y-115350000D01*
X168427705Y-115350000D01*
X168427704Y-115350001D01*
X166748509Y-115350001D01*
X166627797Y-115310001D01*
X166627795Y-115310000D01*
X166525010Y-115299500D01*
X165124998Y-115299500D01*
X165124980Y-115299501D01*
X165037101Y-115308479D01*
X164968408Y-115295709D01*
X164917524Y-115247828D01*
X164900500Y-115185121D01*
X164900500Y-112014879D01*
X164920185Y-111947840D01*
X164972989Y-111902085D01*
X165037102Y-111891521D01*
X165124991Y-111900500D01*
X166525008Y-111900499D01*
X166627797Y-111889999D01*
X166794334Y-111834814D01*
X166943656Y-111742712D01*
X167067712Y-111618656D01*
X167159814Y-111469334D01*
X167214999Y-111302797D01*
X167225500Y-111200009D01*
X167225499Y-110399992D01*
X167214999Y-110297203D01*
X167159814Y-110130666D01*
X167067712Y-109981344D01*
X166943656Y-109857288D01*
X166794334Y-109765186D01*
X166627797Y-109710001D01*
X166627795Y-109710000D01*
X166525010Y-109699500D01*
X165124998Y-109699500D01*
X165124980Y-109699501D01*
X165037101Y-109708479D01*
X164968408Y-109695709D01*
X164917524Y-109647828D01*
X164900500Y-109585121D01*
X164900500Y-107440314D01*
X164920185Y-107373275D01*
X164972989Y-107327520D01*
X165042147Y-107317576D01*
X165098810Y-107341047D01*
X165202665Y-107418793D01*
X165202668Y-107418795D01*
X165202671Y-107418797D01*
X165337517Y-107469091D01*
X165337516Y-107469091D01*
X165344444Y-107469835D01*
X165397127Y-107475500D01*
X167192872Y-107475499D01*
X167252483Y-107469091D01*
X167387331Y-107418796D01*
X167502546Y-107332546D01*
X167588796Y-107217331D01*
X167638002Y-107085401D01*
X167679872Y-107029468D01*
X167745337Y-107005050D01*
X167813610Y-107019901D01*
X167841865Y-107041053D01*
X167963917Y-107163105D01*
X168157421Y-107298600D01*
X168371507Y-107398429D01*
X168371516Y-107398433D01*
X168585000Y-107455634D01*
X168585000Y-106558012D01*
X168642007Y-106590925D01*
X168769174Y-106625000D01*
X168900826Y-106625000D01*
X169027993Y-106590925D01*
X169085000Y-106558012D01*
X169085000Y-107455633D01*
G37*
%TD.AperFunction*%
%TD*%
M02*
